<svg width="147" height="77" viewBox="0 0 147 77" fill="none" xmlns="http://www.w3.org/2000/svg">
<path d="M56.6912 0.892186C51.8406 0.521441 46.8933 1.34599 42.1555 3.31481L40.5974 3.95235L39.1204 4.65209L36.2882 6.09418L33.6621 7.62734C32.8176 8.08617 31.9922 8.60029 31.1898 9.16718C29.6012 10.2461 28.0947 11.2283 26.754 12.3212L24.7433 13.881L22.906 15.4665C19.0571 18.8109 15.4284 22.5152 12.0592 26.5394C10.0218 28.9613 8.09485 31.5099 6.28816 34.1724C5.36864 35.4952 4.5139 36.8771 3.72877 38.3103L3.73376 37.9787C3.80272 36.389 3.91706 34.8099 4.03505 33.3184L4.68896 25.3258C4.98254 20.7505 5.00519 17.8627 4.53995 17.7551C4.07472 17.6474 3.17062 20.418 2.21935 24.9424C1.69833 27.1941 1.24903 29.9109 0.831963 32.9533C0.621841 34.4814 0.429874 36.086 0.309624 37.7939C0.282399 38.2216 0.255186 38.6492 0.247478 39.0959L0.231146 39.7864L0.231143 40.148L0.256128 40.6601C0.253788 41.0846 0.324032 41.4981 0.462642 41.8757C0.601253 42.2533 0.805357 42.5872 1.06271 42.8574C1.65738 43.3903 2.3864 43.6898 3.15879 43.7185L3.43111 43.7815L3.61267 43.8235L3.95309 43.9023C4.18004 43.9548 4.40334 43.9197 4.62847 43.9284C5.07055 43.9294 5.49312 43.9115 5.92704 43.8961C6.769 43.874 7.58644 43.8028 8.35533 43.7348C9.95618 43.5845 11.4808 43.402 12.926 43.2012C15.8195 42.7859 18.4148 42.316 20.568 41.8451C24.894 40.9222 27.5279 40.0273 27.4657 39.5211C27.4035 39.0149 24.6716 38.9903 20.3397 39.3187C18.1624 39.4803 15.5739 39.6624 12.7021 39.8803C11.2792 39.985 9.78501 40.0877 8.23091 40.191C7.45703 40.2289 6.68315 40.2668 5.9011 40.2883L5.35055 40.2911C6.01911 39.5201 7.019 38.2471 8.68427 36.2167C10.1321 34.4543 12.0275 32.1011 14.6782 29.1705C18.0352 25.4294 21.6048 21.9712 25.3566 18.8254L27.1095 17.1914L29.0462 15.7446C30.3338 14.7262 31.779 13.8022 33.3081 12.8252C34.0631 12.3037 34.839 11.8313 35.632 11.4101L38.1097 10.0017L40.789 8.7557C41.2447 8.54291 41.7004 8.33012 42.1366 8.09836C42.5727 7.86659 43.0838 7.72447 43.5672 7.54702C47.6832 5.82313 51.9824 5.0855 56.2029 5.37909C58.4319 5.58154 60.5611 6.34029 62.4539 7.60661C64.3174 8.89476 65.8084 10.7894 66.7682 13.0891C64.2618 14.9979 61.9279 17.2298 59.8138 19.7394C57.2352 22.7081 55.1559 26.225 53.7052 30.0716C53.0239 32.0431 52.6378 34.1145 52.5651 36.1869C52.4429 38.5426 52.9754 40.8156 54.0808 42.6563C54.8026 43.8028 55.7949 44.6631 56.9484 45.1425C58.1428 45.6346 59.4566 45.7134 60.7452 45.3701C62.7368 44.7764 64.5717 43.4645 65.988 41.6217C68.1764 38.7042 69.8236 35.2936 70.8076 31.6422C71.8398 28.2911 72.4117 24.8069 72.5005 21.3297C72.5477 19.0302 72.3199 16.7617 71.824 14.5916C74.5065 12.8887 77.3676 11.6896 80.2967 11.0409C82.0089 10.7045 83.7314 10.5889 85.4333 10.6962C87.1219 10.8266 88.7724 11.2085 90.3467 11.8331C93.5107 13.1466 96.34 15.2815 98.6415 18.0919C99.7682 19.4263 100.745 20.9294 101.551 22.5694C101.943 23.3647 102.295 24.1899 102.605 25.0409C102.886 25.8933 103.122 26.7691 103.313 27.6638C103.523 28.5883 103.671 29.5366 103.756 30.5003C101.455 32.2274 99.2445 34.1326 97.1408 36.2021C94.4034 38.8365 91.9542 41.8765 89.862 45.2365C88.7271 47.0191 87.9159 49.0435 87.4856 51.167C87.2232 52.5471 87.4073 53.9502 88.0004 55.0904C88.1798 55.4157 88.392 55.7123 88.6327 55.9744C88.8669 56.2022 89.1011 56.43 89.3416 56.6303C89.5993 56.8464 89.8781 57.0273 90.1732 57.1698C90.4629 57.3475 90.7758 57.4735 91.1027 57.544C92.3101 57.8999 93.609 57.8183 94.8391 57.3093C95.3739 57.1143 95.8964 56.8623 96.4 56.5566C96.8616 56.2652 97.3111 55.9442 97.7462 55.5952C99.3527 54.2605 100.783 52.6362 101.979 50.7885C104.264 47.351 105.911 43.4118 106.798 39.2611C107.259 37.1851 107.507 35.071 107.537 32.9663C107.552 32.4347 107.545 31.8978 107.527 31.3583C110.222 29.4346 113.044 27.8064 115.956 26.4957C118.907 25.1437 121.972 24.289 125.055 23.9579C128.015 23.6118 130.949 24.0243 133.658 25.1673C136.171 26.273 138.402 28.0435 140.192 30.3535C141.821 32.4147 143.035 34.8989 143.754 37.6434C144.855 42.4905 144.262 47.8197 142.102 52.4785C141.227 54.5696 140.191 56.5726 139.009 58.46C137.956 60.1962 136.823 61.866 135.616 63.461C133.651 66.0499 131.562 68.5038 129.361 70.8085C125.711 74.6504 123.481 76.5358 123.574 76.7019C124.201 76.415 124.794 76.0151 125.331 75.5172C126.426 74.6569 128.009 73.3452 129.952 71.5093C132.29 69.3019 134.508 66.915 136.59 64.3663C137.876 62.7967 139.089 61.1452 140.221 59.4204C141.499 57.4948 142.633 55.4474 143.609 53.3045C144.689 50.935 145.47 48.4133 145.925 45.8267C146.429 42.9347 146.358 39.9994 145.719 37.2593C144.942 34.2013 143.612 31.4285 141.816 29.1235C139.835 26.4611 137.343 24.4027 134.52 23.0957C131.461 21.738 128.137 21.2006 124.77 21.5197C121.413 21.8249 118.068 22.6924 114.838 24.0961C112.182 25.2488 109.592 26.6473 107.092 28.2779C107.02 27.8128 106.934 27.3589 106.836 26.9024C106.435 24.7124 105.766 22.6286 104.849 20.7144C103.922 18.7811 102.791 17.0087 101.48 15.4362C98.7823 12.1224 95.4644 9.59844 91.7514 8.03557C89.8206 7.27053 87.7966 6.8022 85.726 6.64137C83.6971 6.49641 81.6415 6.62735 79.5985 7.03167C76.427 7.69795 73.3197 8.93027 70.3847 10.6857C69.0674 7.85373 67.1401 5.52236 64.7804 3.90669C62.3079 2.24607 59.5239 1.25199 56.6091 0.988897L56.6912 0.892186ZM103.773 34.2506C103.707 35.6994 103.524 37.149 103.226 38.5792C102.472 42.2517 101.051 45.7474 99.0646 48.8124C98.1006 50.3298 96.9464 51.6703 95.6479 52.7808C95.3447 53.0578 95.0038 53.2393 94.6843 53.4836C94.3634 53.6748 94.0336 53.8401 93.6971 53.9784C93.147 54.2357 92.5581 54.296 92.0073 54.1515C91.8799 54.1583 91.7555 54.1296 91.6441 54.0675C91.5307 54.0413 91.4059 54.0124 91.3096 53.8599L91.0604 53.5419C90.9883 53.4733 90.9267 53.3907 90.878 53.2972C90.6488 52.8004 90.5907 52.2046 90.715 51.6249C91.0641 49.9554 91.7014 48.3628 92.5854 46.9515C94.493 43.8212 96.7276 40.9761 99.2288 38.4934C100.705 37.0028 102.228 35.5903 103.796 34.2559L103.773 34.2506ZM67.9506 17.4852C68.4741 21.749 68.0508 26.1936 66.7213 30.3929C65.9015 33.4467 64.542 36.3066 62.7381 38.7723C61.9537 39.8211 60.9424 40.5943 59.8333 40.9931C59.4162 41.1261 58.9855 41.1106 58.5968 40.9484C58.2081 40.7863 57.8793 40.485 57.6528 40.0836C57.0237 38.9474 56.7308 37.5735 56.8158 36.1579C56.8701 34.5555 57.1639 32.9534 57.6835 31.4261C58.9412 28.1171 60.7279 25.087 62.9371 22.5162C64.4976 20.6557 66.1908 18.9601 67.9942 17.4519" fill="white"/>
</svg>
