<svg width="444" height="410" viewBox="0 0 444 410" fill="none" xmlns="http://www.w3.org/2000/svg">
<path d="M307.146 408.713C144.513 409.04 12.3903 273.279 12.0739 105.45C11.7575 -62.3795 143.368 -198.67 306.001 -198.996C468.633 -199.322 600.756 -63.5614 601.073 104.268C601.389 272.097 469.779 408.387 307.146 408.713Z" stroke="white"/>
<path d="M339.146 408.649C176.513 408.975 44.3903 273.214 44.0739 105.385C43.7575 -62.4439 175.368 -198.734 338.001 -199.06C500.633 -199.387 632.756 -63.6258 633.073 104.203C633.389 272.032 501.779 408.323 339.146 408.649Z" stroke="white"/>
<path d="M14.0317 137.031L11.192 128.641L11.1224 128.435L10.9085 128.398L2.25765 126.872L10.6086 123.755L10.815 123.678L10.8574 123.461L12.5857 114.644L15.4253 123.034L15.495 123.239L15.7088 123.277L24.3597 124.802L16.0087 127.92L15.8023 127.997L15.7599 128.213L14.0317 137.031Z" fill="#A7F46A" stroke="white" stroke-width="0.76"/>
</svg>
